<svg xmlns="http://www.w3.org/2000/svg" width="184" height="182" fill="none"><path fill="#196164" d="M64.218 154.239c1.205 7.991 2.685 15.99 5.52 23.56.537 1.421 1.21 2.941 2.566 3.625 1.768.895 3.871 0 5.661-.854a148.25 148.25 0 0 1 74.706-13.883c7.049.537 14.059 1.593 21.122 1.938 1.4.07 2.95.061 4.006-.862 1.121-.981 1.285-2.639 1.36-4.126a349.55 349.55 0 0 0-9.608-100.848c-1.201-4.894-2.526-9.81-4.887-14.263-.63-1.192-1.384-2.395-2.554-3.068-1.482-.85-3.314-.68-5.012-.472-33.984 4.163-67.41 13.246-101.63 14.36-3.042.098-6.84.166-8.95 2.73-1.485 1.803-.237 3.68.828 5.339 3.603 5.615 5.117 12.542 6.7 18.963 1.745 7.083 3.062 14.265 4.161 21.48 1.105 7.259 1.987 14.548 2.864 21.838.877 7.291 1.72 14.584 2.766 21.851.118.895.245 1.792.381 2.692Z"/><path fill="#D0FF45" d="M116.778 113.687c.83.75 1.758 1.53 2.875 1.611 1.043.073 2.022-.485 2.88-1.087 4.407-3.084 7.518-7.645 10.622-12.032a339.95 339.95 0 0 1 41.504-48.225c1.749-1.685 3.704-3.425 5.907-4.287a2.357 2.357 0 0 1 2.274.314c.32.242.574.562.735.93.163.367.228.77.19 1.17-.306 3.072-2.186 6.077-3.976 8.737a586.51 586.51 0 0 0-33.243 55.835c-5.626 10.765-12.629 22.586-18.325 31.437-1.16 1.801-2.815 3.466-4.906 3.938-3.698.845-6.852-2.606-9.079-5.677l-16.423-22.667-16.615-22.93-4.137-5.71c-1.226-1.694-2.864-3.443-3.567-5.439-1.162-3.277 1.312-5.418 4.487-5.03 3.462.423 7.089 2.74 10.024 4.515a79.56 79.56 0 0 1 9.396 6.78c6.032 4.986 11.529 10.562 17.265 15.883.699.648 1.403 1.293 2.112 1.934Z"/><path fill="#FFD550" d="M21.37 105.605a119.07 119.07 0 0 1 50.253-23.794.82.82 0 0 0 .553-1.192C58.93 56.42 64.776 25.576 50.384 1.872 50.05 1.32 49.004-.592 45.12.697 32.422 4.911 20.262 12.56 6.902 11.863c-.08 0-3.37 9.745-3.76 10.654-.77 1.773-1.777 3.46-2.52 5.234-.547 1.309.698 2.73 1.273 3.958 2.656 5.68 4.22 11.8 5.272 17.963C8.24 55.96 8.804 62.32 9.457 68.66c.65 6.299 1.372 12.614 2.806 18.795 1.392 6.002 3.496 11.872 6.791 17.105.161.256.325.51.49.762a1.247 1.247 0 0 0 1.366.516 1.25 1.25 0 0 0 .46-.233Z"/><path fill="#196164" d="M20.637 26.612a.716.716 0 0 1-.324-1.357 72.71 72.71 0 0 1 18.143-6.317.717.717 0 0 1 .288 1.402 71.364 71.364 0 0 0-17.787 6.193.7.7 0 0 1-.32.079ZM22.346 36.147a.715.715 0 0 1-.315-1.36c10.878-5.342 17.386-6.543 22.32-7.012a.719.719 0 1 1 .135 1.432c-4.804.458-11.153 1.632-21.825 6.873a.725.725 0 0 1-.315.067ZM20.637 50.7a.717.717 0 0 1-.358-1.337c11.006-6.301 18.338-8.639 31.63-11.802a.716.716 0 0 1 .33 1.388c-13.151 3.128-20.406 5.44-31.251 11.65a.719.719 0 0 1-.351.1ZM28.58 58.61a.716.716 0 0 1-.28-1.375l19.559-8.347a.714.714 0 0 1 .94.378.72.72 0 0 1-.147.782.717.717 0 0 1-.231.157l-19.56 8.347a.714.714 0 0 1-.28.057ZM25.926 74.211a.717.717 0 0 1-.374-1.326c10.946-6.693 22.416-11.605 28.545-12.222a.717.717 0 0 1 .76.924.72.72 0 0 1-.617.508c-5.934.598-17.163 5.427-27.942 12.018a.714.714 0 0 1-.372.098ZM36.81 80.746a.716.716 0 0 1-.359-1.335c4.026-2.347 10.352-4.772 14.397-5.52a.715.715 0 1 1 .262 1.406c-3.845.716-10.098 3.113-13.937 5.35a.715.715 0 0 1-.364.1ZM116.858 142.71c.938 1.527 2.148 3.222 3.929 3.356 1.781.134 3.198-1.339 4.253-2.755 1.598-2.148 2.894-5.359 1.027-7.276-.823-.843-2.037-1.14-3.141-1.552-6.607-2.454-10.11-9.446-14.805-14.701-1.253-1.406-9.987-8.628-2.907 3.442a207.473 207.473 0 0 0 3.145 5.141c1.571 2.506 2.873 5.191 4.425 7.711l4.074 6.634Z"/><path fill="#fff" d="M68.567 136.968a.72.72 0 0 1-.716-.631 703.699 703.699 0 0 0-7.16-45.708.717.717 0 0 1 1.407-.268 706.361 706.361 0 0 1 7.173 45.803.718.718 0 0 1-.716.804h.012ZM70.418 152.879a.732.732 0 0 1-.452-.161.724.724 0 0 1-.248-.41c-.63-3.034-.754-4.663-.834-6.197a.725.725 0 0 1 .183-.518.74.74 0 0 1 .224-.168.69.69 0 0 1 .271-.068.726.726 0 0 1 .685.406c.04.086.064.178.069.273.077 1.476.197 3.043.805 5.98a.722.722 0 0 1-.704.863ZM76.719 174.588c-1.13 0-2.003-.345-2.553-1.215-.637-1.014-2.473-9.615-2.357-12.341a.708.708 0 0 1 .231-.496.707.707 0 0 1 .515-.189.748.748 0 0 1 .272.066.715.715 0 0 1 .414.68c-.107 2.469 1.683 10.708 2.148 11.521.83 1.317 4.407 0 8.195-1.386 3.001-1.102 6.406-2.352 9.716-2.842a.719.719 0 0 1 .695 1.142.724.724 0 0 1-.486.273c-3.165.469-6.494 1.692-9.431 2.771-2.938 1.08-5.5 2.016-7.359 2.016ZM80.847 62.09a.717.717 0 1 1-.102-1.433c6.734-.977 13.584-2.148 20.211-3.29 6.626-1.142 13.495-2.314 20.246-3.295a.719.719 0 0 1 .813.606.714.714 0 0 1-.607.812c-6.734.977-13.586 2.148-20.211 3.29-6.624 1.142-13.494 2.314-20.246 3.295a.36.36 0 0 1-.104.014ZM132.171 53.336a.712.712 0 0 1-.71-.645.713.713 0 0 1 .569-.773c2.765-.56 7.083-1.252 10.147-1.394a.718.718 0 0 1 .747.686.719.719 0 0 1-.686.746c-2.982.129-7.208.816-9.923 1.366a.79.79 0 0 1-.144.014Z"/><path fill="#196164" d="M119.806 116.146c-2.209 0-4.139-2.058-5.633-3.651a18.857 18.857 0 0 0-1.375-1.381c-.462-.393-1.663-1.475-3.324-2.971-5.47-4.926-16.855-15.175-19.951-17.035a.716.716 0 0 1 .735-1.228c3.222 1.932 14.249 11.864 20.174 17.2 1.654 1.487 2.848 2.563 3.295 2.944.523.471 1.021.969 1.491 1.491 2.116 2.258 3.883 3.903 5.741 2.879a.741.741 0 0 1 .555-.079c.093.025.18.07.255.129.077.059.14.132.187.218a.746.746 0 0 1 .086.272.714.714 0 0 1-.392.713 3.726 3.726 0 0 1-1.844.499ZM74.84 91.984a.714.714 0 0 1-.55-.258c-.98-1.178-1.521-2.304-1.654-3.44-.179-1.524.492-3.006 1.663-3.693 1-.587 2.118-.582 2.878-.476 2.254.318 5.447 1.418 7.114 2.254a.715.715 0 1 1-.643 1.28c-1.566-.785-4.56-1.818-6.671-2.115-.755-.107-1.45 0-1.953.292-.678.397-1.074 1.34-.965 2.293.099.852.537 1.73 1.332 2.685a.716.716 0 0 1-.093 1.008.704.704 0 0 1-.458.17ZM79.213 98.712a.72.72 0 0 1-.553-.261 27.903 27.903 0 0 1-2.408-3.411.717.717 0 0 1 1.23-.736 26.65 26.65 0 0 0 2.282 3.236.71.71 0 0 1 .096.76.713.713 0 0 1-.648.412ZM92.954 118.115a.701.701 0 0 1-.36-.097.706.706 0 0 1-.262-.261 115.803 115.803 0 0 0-10.583-15.455.718.718 0 0 1 .63-1.149.715.715 0 0 1 .48.245 117.19 117.19 0 0 1 10.717 15.648.706.706 0 0 1 .069.543.732.732 0 0 1-.336.435.742.742 0 0 1-.355.091ZM121.933 152.721c-1.445 0-2.877-.458-3.924-1.557a.707.707 0 0 1-.135-.784.707.707 0 0 1 .672-.426.7.7 0 0 1 .274.063.659.659 0 0 1 .227.161c1.497 1.571 4.146 1.326 5.877.297 2.023-1.203 3.432-3.294 4.543-5.179 4.393-7.451 8.259-14.767 11.993-21.838 4.529-8.565 8.805-16.647 13.88-24.856a93.48 93.48 0 0 1 3.073-4.687.729.729 0 0 1 .202-.192.735.735 0 0 1 .541-.092.712.712 0 0 1 .548.579.75.75 0 0 1-.007.279.747.747 0 0 1-.115.255c-.915 1.289-1.847 2.713-3.023 4.614-5.052 8.159-9.317 16.228-13.832 24.77-3.748 7.09-7.623 14.42-12.03 21.9-1.205 2.043-2.746 4.314-5.046 5.684a7.47 7.47 0 0 1-3.718 1.009ZM161.634 90.715a.714.714 0 0 1-.709-.608.742.742 0 0 1 .028-.334 8.226 8.226 0 0 1 1.533-2.722.705.705 0 0 1 .488-.25.72.72 0 0 1 .695.388.703.703 0 0 1 .075.269.706.706 0 0 1-.168.522 6.75 6.75 0 0 0-1.253 2.242.728.728 0 0 1-.263.36.725.725 0 0 1-.426.133ZM174.741 68.636a.714.714 0 0 1-.712-.794.706.706 0 0 1 .15-.366c2.461-3.122 9.276-13.209 8.264-16.347-.202-.628-.521-.77-.743-.821-1.376-.326-4.084 1.684-4.881 2.506a.716.716 0 0 1-1.026-.999c.688-.705 3.955-3.431 6.235-2.896.596.14 1.387.562 1.779 1.775 1.507 4.681-8.404 17.542-8.504 17.675a.725.725 0 0 1-.562.267ZM158.087 71.782a.716.716 0 0 1-.513-1.215c.608-.625 1.72-1.81 3.007-3.181 4.972-5.295 9.54-10.117 10.808-10.957a.719.719 0 0 1 1.099.46.712.712 0 0 1-.308.734c-1.233.816-7.069 7.031-10.561 10.74a353.574 353.574 0 0 1-3.023 3.199.724.724 0 0 1-.509.22Z"/></svg>