<?xml version="1.0" encoding="UTF-8"?>
<svg viewBox="0 0 184 182" xmlns="http://www.w3.org/2000/svg">
<path d="m64.218 154.24c1.2047 7.991 2.685 15.99 5.5204 23.56 0.537 1.421 1.21 2.941 2.565 3.625 1.7686 0.895 3.8718 0 5.6618-0.854 23.273-11.039 49.021-15.824 74.706-13.883 7.049 0.537 14.059 1.593 21.122 1.938 1.4 0.07 2.95 0.061 4.006-0.862 1.121-0.981 1.285-2.639 1.36-4.126 1.712-33.905-1.526-67.877-9.608-100.85-1.201-4.8939-2.526-9.811-4.887-14.263-0.63-1.1922-1.384-2.3949-2.554-3.0679-1.482-0.8502-3.314-0.6804-5.012-0.4727-33.984 4.1635-67.41 13.246-101.63 14.36-3.043 0.0985-6.8414 0.1663-8.95 2.7314-1.4857 1.8025-0.2381 3.6802 0.827 5.3378 3.6032 5.6152 5.1176 12.543 6.6999 18.963 1.7453 7.083 3.0627 14.265 4.1618 21.48 1.1044 7.259 1.9869 14.548 2.864 21.838 0.8771 7.291 1.7202 14.584 2.7655 21.851 0.1182 0.895 0.2453 1.792 0.3813 2.692z" fill="#196164"/>
<path d="m116.78 113.69c0.83 0.75 1.758 1.53 2.875 1.611 1.043 0.073 2.022-0.485 2.88-1.087 4.407-3.084 7.518-7.645 10.622-12.032 12.297-17.338 26.193-33.484 41.504-48.225 1.749-1.6844 3.704-3.4243 5.907-4.2871 0.374-0.146 0.781-0.1936 1.178-0.1387 0.397 0.055 0.775 0.2109 1.096 0.4531 0.32 0.242 0.574 0.562 0.735 0.9297 0.163 0.3677 0.228 0.7708 0.19 1.1707-0.306 3.0716-2.186 6.077-3.976 8.7369-12.104 17.983-23.202 36.622-33.243 55.835-5.626 10.765-12.629 22.586-18.325 31.437-1.16 1.801-2.815 3.466-4.906 3.938-3.698 0.845-6.852-2.606-9.079-5.677l-16.423-22.667-16.615-22.93-4.1367-5.7107c-1.2261-1.6934-2.864-3.4422-3.5674-5.4381-1.1617-3.2775 1.312-5.4183 4.4875-5.0299 3.4619 0.4225 7.0884 2.7405 10.024 4.5144 3.2925 2.0288 6.4327 4.2949 9.3957 6.7805 6.0319 4.9858 11.529 10.562 17.265 15.883 0.699 0.648 1.403 1.293 2.112 1.934z" fill="#D0FF45"/>
<path d="m21.37 105.6c14.638-11.786 31.859-19.94 50.252-23.794 0.1251-0.0259 0.2425-0.0807 0.3426-0.16 0.1002-0.0793 0.1802-0.1809 0.2341-0.2968 0.0537-0.116 0.0797-0.2427 0.0756-0.3705-0.0042-0.1276-0.0382-0.2526-0.0992-0.3648-13.246-24.199-7.3999-55.042-21.792-78.747-0.3347-0.55132-1.3801-2.463-5.2644-1.1742-12.698 4.2137-24.858 11.862-38.218 11.166-0.08055 0-3.3706 9.7448-3.759 10.654-0.77149 1.7721-1.7775 3.4601-2.5203 5.234-0.54774 1.3084 0.6981 2.7297 1.2727 3.9577 2.6564 5.6796 4.219 11.8 5.2716 17.963 1.074 6.2883 1.6378 12.648 2.2912 18.988 0.64973 6.299 1.3711 12.614 2.8049 18.795 1.3926 6.0019 3.4959 11.872 6.7913 17.105 0.1611 0.256 0.3247 0.51 0.4904 0.762 0.0965 0.145 0.2218 0.269 0.3682 0.362 0.1466 0.093 0.3108 0.155 0.4826 0.182 0.1717 0.027 0.3471 0.016 0.5148-0.028 0.1679-0.045 0.3247-0.124 0.4602-0.233z" fill="#FFD550"/>
<path d="m20.637 26.612c-0.1617 0.0011-0.319-0.0527-0.4465-0.1525-0.1272-0.0997-0.2169-0.2399-0.2545-0.3972-0.0376-0.1574-0.0208-0.3228 0.0476-0.4694 0.0686-0.1464 0.1848-0.2656 0.3294-0.3377 5.7418-2.8989 11.843-5.0231 18.143-6.317 0.1826-0.03 0.3698 0.0117 0.5222 0.1164 0.1525 0.1049 0.2584 0.2647 0.2957 0.4459 0.0374 0.1813 3e-3 0.37-0.0958 0.5264-0.0988 0.1565-0.2542 0.2685-0.4339 0.3129-6.1766 1.2695-12.158 3.3522-17.787 6.1934-0.099 0.0514-0.2089 0.0784-0.3204 0.0788z" fill="#196164"/>
<path d="m22.346 36.147c-0.1624 7e-4 -0.3201-0.0539-0.4473-0.1547-0.1273-0.1006-0.2166-0.2417-0.2531-0.3999-0.0367-0.158-0.0185-0.324 0.0515-0.4704s0.1878-0.2647 0.3338-0.3354c10.878-5.3414 17.386-6.5425 22.32-7.0115 0.0942-0.0089 0.1889 7e-4 0.2793 0.0285 0.0902 0.0277 0.1742 0.073 0.247 0.1332 0.0729 0.0601 0.133 0.134 0.1772 0.2174 0.0442 0.0835 0.0716 0.1749 0.0806 0.2689 0.0089 0.094-7e-4 0.1888-0.0285 0.2792-0.0277 0.0903-0.073 0.1742-0.1332 0.2471-0.0601 0.0726-0.134 0.133-0.2174 0.1772-0.0835 0.0442-0.1749 0.0716-0.2689 0.0805-4.8044 0.4583-11.154 1.6325-21.826 6.8736-0.0986 0.0455-0.2064 0.068-0.315 0.0663z" fill="#196164"/>
<path d="m20.637 50.7c-0.1579 3e-4 -0.3116-0.0516-0.4369-0.1475-0.1255-0.0961-0.2157-0.2307-0.2565-0.3834-0.0408-0.1525-0.0301-0.3144 0.0306-0.4602 0.0607-0.1459 0.1679-0.2675 0.3048-0.3461 11.007-6.3008 18.339-8.6385 31.631-11.801 0.1767-0.0251 0.3562 0.017 0.5037 0.1174 0.1473 0.1006 0.2519 0.2526 0.293 0.426 0.0412 0.1736 0.0162 0.3564-0.0703 0.5125-0.0865 0.1559-0.2281 0.274-0.397 0.3313-13.151 3.1289-20.406 5.4397-31.252 11.651-0.1064 0.0631-0.2272 0.0977-0.3509 0.1004z" fill="#196164"/>
<path d="m28.581 58.609c-0.1651 2e-4 -0.3251-0.0568-0.4531-0.1611-0.1278-0.1044-0.2157-0.2497-0.2488-0.4115-0.0331-0.1617-0.0093-0.3299 0.0675-0.476 0.0766-0.1462 0.2015-0.2613 0.3533-0.3261l19.559-8.3468c0.0864-0.0369 0.1793-0.0564 0.2735-0.0573 0.0939-0.0011 0.1874 0.0165 0.2746 0.0516 0.0873 0.035 0.1668 0.087 0.2339 0.1527 0.0673 0.0658 0.1208 0.1442 0.1577 0.2307 0.0369 0.0866 0.0564 0.1795 0.0575 0.2735 9e-4 0.0942-0.0167 0.1874-0.0518 0.2746-0.035 0.0873-0.087 0.1668-0.1526 0.2341-0.0659 0.0671-0.1443 0.1207-0.2308 0.1575l-19.559 8.3468c-0.0888 0.038-0.1844 0.0573-0.281 0.0573z" fill="#196164"/>
<path d="m25.926 74.211c-0.1559 0-0.3077-0.051-0.4321-0.1451-0.1242-0.0942-0.2144-0.2263-0.2568-0.3765-0.0423-0.15-0.0344-0.31 0.0223-0.4552 0.057-0.1453 0.1595-0.2679 0.2925-0.3495 10.946-6.6929 22.416-11.604 28.545-12.222 0.0939-0.0095 0.189-3e-4 0.2794 0.027 0.0905 0.0272 0.1747 0.0722 0.2479 0.132 0.073 0.0597 0.1337 0.1335 0.1784 0.2167 0.0446 0.0833 0.0725 0.1746 0.0819 0.2687 0.0094 0.094 1e-4 0.1889-0.0271 0.2794-0.0274 0.0904-0.0721 0.1746-0.1321 0.2478-0.0598 0.0732-0.1333 0.1337-0.2167 0.1784-0.0833 0.0448-0.1744 0.0725-0.2685 0.082-5.9339 0.5979-17.163 5.4273-27.942 12.018-0.1128 0.0662-0.2415 0.1002-0.3724 0.0982z" fill="#196164"/>
<path d="m36.809 80.746c-0.1573-4e-4 -0.3102-0.0523-0.4349-0.1482-0.125-0.096-0.2146-0.2304-0.2553-0.3824-0.0408-0.1519-0.0304-0.3132 0.0297-0.4587 0.0602-0.1454 0.1665-0.2671 0.3025-0.346 4.0257-2.3467 10.352-4.7722 14.397-5.5204 0.094-0.0211 0.1912-0.0231 0.2859-0.0057 0.0947 0.0173 0.1849 0.0537 0.2653 0.1066 0.0803 0.053 0.1492 0.1218 0.2024 0.202 0.0532 0.0801 0.0897 0.1704 0.1072 0.2649 0.0177 0.0947 0.016 0.192-0.0048 0.286-0.0209 0.094-0.0605 0.1826-0.1165 0.261-0.0559 0.0784-0.1271 0.1446-0.2093 0.1948-0.0821 0.0503-0.1736 0.0832-0.2688 0.0973-3.845 0.716-10.097 3.1128-13.937 5.3503-0.1101 0.0647-0.2356 0.0987-0.3634 0.0985z" fill="#196164"/>
<path d="m116.86 142.71c0.938 1.527 2.148 3.222 3.929 3.356s3.198-1.339 4.253-2.755c1.598-2.148 2.894-5.359 1.027-7.276-0.823-0.843-2.037-1.14-3.141-1.552-6.607-2.454-10.11-9.446-14.805-14.701-1.253-1.406-9.9867-8.628-2.907 3.442 1.024 1.745 2.074 3.431 3.145 5.141 1.571 2.506 2.873 5.191 4.425 7.711l4.074 6.634z" fill="#196164"/>
<path d="m68.567 136.97c-0.1758 0-0.346-0.063-0.4781-0.179-0.1321-0.117-0.2168-0.278-0.2379-0.452-1.8741-15.241-4.2835-30.621-7.16-45.708-0.0356-0.1865 0.0045-0.3796 0.1112-0.5368 0.1066-0.157 0.2715-0.2653 0.458-0.3009 0.1867-0.0356 0.3797 0.0043 0.5368 0.1112 0.157 0.1067 0.2653 0.2715 0.3009 0.458 2.8801 15.119 5.2949 30.527 7.1726 45.803 0.0125 0.1 0.0032 0.204-0.0271 0.301-0.0304 0.096-0.0811 0.186-0.1489 0.263-0.0677 0.075-0.1511 0.136-0.2442 0.177-0.093 0.041-0.194 0.063-0.2958 0.063h0.0125z" fill="#fff"/>
<path d="m70.418 152.88c-0.1645-2e-3 -0.3238-0.058-0.4513-0.161-0.1274-0.106-0.2153-0.249-0.2486-0.41-0.6301-3.034-0.7536-4.663-0.8341-6.197-0.0049-0.095 0.0087-0.188 0.0401-0.278 0.0315-0.089 0.08-0.17 0.143-0.24 0.063-0.069 0.1392-0.127 0.2243-0.168 0.0848-0.041 0.177-0.064 0.271-0.068 0.0941-5e-3 0.1881 7e-3 0.2769 0.04 0.0888 0.032 0.1704 0.08 0.2404 0.143 0.07 0.062 0.1269 0.139 0.1673 0.223 0.0407 0.086 0.0641 0.178 0.069 0.273 0.0769 1.476 0.1969 3.043 0.8055 5.98 0.0386 0.184 0.0019 0.379-0.1022 0.537-0.104 0.159-0.2669 0.27-0.4527 0.31-0.0487 0.01-0.0987 0.016-0.1486 0.016z" fill="#fff"/>
<path d="m76.719 174.59c-1.1295 0-2.003-0.345-2.5526-1.215-0.6372-1.014-2.4738-9.615-2.3574-12.341 0.0041-0.093 0.0265-0.186 0.0662-0.27 0.0396-0.086 0.0958-0.163 0.1651-0.226 0.0692-0.064 0.1505-0.114 0.2389-0.146 0.0883-0.033 0.1822-0.047 0.2762-0.043 0.0942 5e-3 0.1864 0.027 0.2717 0.066 0.0854 0.041 0.162 0.097 0.2258 0.166 0.0637 0.068 0.1129 0.151 0.1453 0.238 0.0322 0.088 0.0469 0.183 0.0428 0.276-0.1074 2.469 1.6826 10.708 2.148 11.521 0.8306 1.317 4.407 0 8.1946-1.386 3.0018-1.102 6.4064-2.352 9.7161-2.842 0.0944-0.016 0.1914-0.015 0.2848 7e-3 0.0936 0.021 0.1821 0.061 0.2599 0.116 0.0779 0.056 0.1438 0.127 0.1937 0.21 0.05 0.082 0.0829 0.173 0.0969 0.268 0.0141 0.095 0.0089 0.192-0.0153 0.283-0.024 0.093-0.0664 0.181-0.1249 0.258-0.0584 0.075-0.1314 0.139-0.2148 0.186-0.0834 0.046-0.1754 0.077-0.2708 0.087-3.1648 0.469-6.4942 1.692-9.4315 2.771-2.9374 1.08-5.4989 2.016-7.3587 2.016z" fill="#fff"/>
<path d="m80.847 62.089c-0.1899 0.0136-0.3773-0.0489-0.5212-0.1737-0.1438-0.1246-0.2322-0.3014-0.2458-0.4913-0.0134-0.1899 0.0491-0.3774 0.1736-0.5213 0.1248-0.1437 0.3015-0.2321 0.4914-0.2457 6.734-0.9774 13.584-2.148 20.211-3.2901 6.626-1.142 13.495-2.3144 20.246-3.2954 0.188-0.0272 0.38 0.0213 0.532 0.1348 0.152 0.1137 0.252 0.2832 0.281 0.4712 0.027 0.1879-0.021 0.3791-0.136 0.5314-0.113 0.1522-0.283 0.2531-0.471 0.2803-6.734 0.9774-13.586 2.148-20.211 3.29-6.6244 1.1421-13.494 2.3145-20.246 3.2954-0.0358 0.0108-0.0716 0.0144-0.1038 0.0144z" fill="#fff"/>
<path d="m132.17 53.336c-0.177-2e-4 -0.349-0.0664-0.479-0.1855-0.131-0.1192-0.215-0.283-0.231-0.4595-0.018-0.1765 0.03-0.3533 0.136-0.496 0.105-0.1428 0.259-0.2414 0.433-0.2767 2.765-0.5603 7.083-1.253 10.147-1.3944 0.19-0.0081 0.376 0.0596 0.516 0.1881 0.14 0.1287 0.224 0.3075 0.231 0.4975 9e-3 0.1899-0.059 0.3753-0.188 0.5153s-0.308 0.223-0.498 0.2311c-2.982 0.1289-7.208 0.8162-9.923 1.3658-0.047 0.0091-0.095 0.0139-0.144 0.0143z" fill="#fff"/>
<path d="m119.81 116.15c-2.209 0-4.139-2.058-5.633-3.651-0.434-0.484-0.893-0.944-1.375-1.381-0.462-0.393-1.663-1.475-3.324-2.971-5.47-4.926-16.855-15.175-19.951-17.035-0.1571-0.1001-0.2692-0.2578-0.312-0.4393-0.0429-0.1815-0.0132-0.3725 0.0825-0.5325 0.096-0.1598 0.2505-0.2762 0.4307-0.324 0.1803-0.0478 0.372-0.0234 0.5345 0.068 3.222 1.9314 14.249 11.864 20.174 17.2 1.654 1.487 2.848 2.563 3.295 2.944 0.523 0.471 1.021 0.969 1.491 1.491 2.116 2.258 3.883 3.903 5.741 2.879 0.082-0.049 0.173-0.083 0.27-0.095 0.095-0.014 0.191-7e-3 0.285 0.016 0.093 0.025 0.18 0.07 0.255 0.129 0.077 0.059 0.14 0.132 0.187 0.218 0.046 0.084 0.075 0.177 0.086 0.272 9e-3 0.097 0 0.194-0.029 0.287-0.029 0.091-0.075 0.177-0.138 0.25-0.063 0.074-0.14 0.133-0.225 0.176-0.563 0.324-1.196 0.496-1.844 0.499z" fill="#196164"/>
<path d="m74.84 91.984c-0.1049 0-0.2084-0.0231-0.3034-0.0677-0.0949-0.0446-0.179-0.1094-0.2461-0.1899-0.981-1.1778-1.5215-2.3039-1.654-3.4406-0.179-1.5233 0.4923-3.0054 1.6629-3.6927 1.0006-0.5872 2.1176-0.5818 2.8783-0.4762 2.2536 0.3186 5.447 1.4179 7.1135 2.2538 0.1697 0.0852 0.2988 0.2343 0.3584 0.4146 0.0597 0.1802 0.0454 0.3768-0.0398 0.5465-0.0852 0.1696-0.2343 0.2987-0.4145 0.3585-0.1803 0.0598-0.377 0.0455-0.5467-0.0397-1.5663-0.7841-4.5609-1.8171-6.6713-2.1142-0.7554-0.1074-1.4499 0-1.9529 0.2917-0.6784 0.3974-1.074 1.3408-0.9648 2.293 0.0984 0.8521 0.537 1.731 1.3317 2.685 0.1212 0.1461 0.1796 0.3344 0.162 0.5233-0.0174 0.189-0.1092 0.3631-0.2551 0.4845-0.1276 0.1096-0.2899 0.1699-0.4582 0.1701z" fill="#196164"/>
<path d="m79.213 98.712c-0.1058 0-0.2101-0.0232-0.3059-0.0698-0.0956-0.0447-0.1801-0.111-0.2472-0.1915-0.8868-1.0758-1.6916-2.2153-2.4076-3.4107-0.0975-0.163-0.1263-0.3582-0.08-0.5425 0.0464-0.1842 0.164-0.3426 0.3271-0.4402 0.163-0.0975 0.3581-0.1264 0.5425-0.08 0.1842 0.0464 0.3426 0.164 0.4402 0.327 0.6793 1.1335 1.4422 2.2146 2.2822 3.2353 0.0867 0.1038 0.1416 0.2309 0.1588 0.3651 0.017 0.1361-0.0047 0.2721-0.0625 0.3956s-0.1494 0.2274-0.264 0.299c-0.1147 0.0733-0.2477 0.1127-0.3836 0.1127z" fill="#196164"/>
<path d="m92.954 118.12c-0.1262 0-0.2503-0.032-0.3596-0.097-0.1094-0.062-0.2003-0.152-0.2633-0.261-3.1046-5.429-6.6436-10.598-10.582-15.455-0.1131-0.148-0.1643-0.334-0.1427-0.519 0.0217-0.186 0.1146-0.354 0.259-0.472 0.1443-0.117 0.3289-0.174 0.5143-0.158 0.1855 0.016 0.3573 0.104 0.4792 0.245 3.9888 4.917 7.5728 10.151 10.717 15.648 0.0467 0.081 0.077 0.171 0.0888 0.265 0.0118 0.093 0.0052 0.188-0.0195 0.278-0.0249 0.091-0.0673 0.177-0.1249 0.25-0.0577 0.076-0.1293 0.136-0.2111 0.185-0.1083 0.059-0.2304 0.091-0.3544 0.091z" fill="#196164"/>
<path d="m121.93 152.72c-1.445 0-2.877-0.458-3.924-1.557-0.065-0.07-0.115-0.149-0.149-0.236-0.034-0.088-0.05-0.183-0.047-0.276 2e-3 -0.095 0.023-0.186 0.061-0.272s0.093-0.165 0.162-0.229c0.068-0.065 0.147-0.115 0.235-0.149 0.089-0.034 0.182-0.05 0.275-0.048 0.095 3e-3 0.188 0.023 0.274 0.063 0.086 0.037 0.163 0.091 0.227 0.161 1.497 1.571 4.146 1.326 5.877 0.297 2.023-1.203 3.432-3.294 4.543-5.179 4.393-7.451 8.259-14.767 11.993-21.838 4.529-8.565 8.805-16.647 13.88-24.856 1.194-1.9269 2.148-3.373 3.073-4.6869 0.054-0.0768 0.124-0.1421 0.202-0.1922 0.081-0.05 0.17-0.084 0.262-0.0997 0.093-0.0158 0.188-0.0133 0.279 0.0077 0.093 0.0209 0.179 0.0596 0.256 0.114 0.077 0.0546 0.141 0.1235 0.192 0.2031 0.05 0.0797 0.084 0.1685 0.1 0.2612s0.012 0.1876-7e-3 0.2794c-0.022 0.0917-0.061 0.1785-0.115 0.2553-0.915 1.2888-1.847 2.7125-3.023 4.6135-5.052 8.1593-9.317 16.228-13.832 24.77-3.748 7.09-7.623 14.42-12.03 21.9-1.205 2.043-2.746 4.314-5.046 5.684-1.13 0.655-2.411 1.004-3.718 1.009z" fill="#196164"/>
<path d="m161.63 90.715c-0.113 0-0.226-0.0268-0.326-0.0784-0.102-0.0515-0.188-0.1264-0.256-0.2184-0.066-0.092-0.109-0.1983-0.127-0.3104-0.016-0.1122-7e-3 -0.2267 0.028-0.3343 0.333-0.9971 0.852-1.9212 1.533-2.7226 0.06-0.0716 0.136-0.1305 0.22-0.1733 0.082-0.0428 0.173-0.0687 0.268-0.0761 0.093-0.0075 0.188 0.0034 0.278 0.0324 0.089 0.029 0.172 0.0754 0.243 0.1363 0.072 0.061 0.131 0.1356 0.174 0.2192 0.043 0.0838 0.068 0.1753 0.075 0.2689 9e-3 0.0938-4e-3 0.1881-0.032 0.2776-0.029 0.0895-0.075 0.1724-0.136 0.244-0.557 0.6603-0.983 1.4218-1.253 2.2429-0.049 0.1446-0.14 0.2702-0.263 0.3588-0.126 0.0885-0.274 0.1352-0.426 0.1334z" fill="#196164"/>
<path d="m174.74 68.636c-0.134 0-0.267-0.0378-0.38-0.1092-0.114-0.0714-0.205-0.1734-0.264-0.2946-0.06-0.121-0.083-0.2562-0.068-0.3899 0.014-0.1337 0.066-0.2606 0.15-0.3662 2.461-3.1218 9.276-13.208 8.264-16.346-0.202-0.6283-0.521-0.7697-0.743-0.8216-1.376-0.3258-4.084 1.6844-4.881 2.506-0.134 0.1312-0.313 0.2049-0.499 0.2053-0.188 5e-4 -0.369-0.0723-0.501-0.203-0.135-0.1305-0.213-0.3086-0.217-0.4956-5e-3 -0.1871 0.064-0.3686 0.191-0.5055 0.688-0.7053 3.955-3.4315 6.235-2.8963 0.596 0.1397 1.387 0.5621 1.779 1.7757 1.507 4.6809-8.404 17.542-8.504 17.674-0.068 0.0838-0.154 0.1514-0.251 0.1976-0.096 0.0462-0.204 0.0698-0.311 0.0691z" fill="#196164"/>
<path d="m158.09 71.782c-0.141 1e-4 -0.279-0.0414-0.395-0.1191-0.118-0.0778-0.21-0.1885-0.265-0.3181-0.054-0.1297-0.07-0.2727-0.043-0.4111 0.025-0.1386 0.091-0.2662 0.19-0.3671 0.608-0.6247 1.72-1.8097 3.007-3.1809 4.972-5.2948 9.54-10.117 10.808-10.957 0.079-0.0519 0.166-0.0878 0.258-0.1057 0.093-0.0181 0.188-0.0178 0.281 1e-3 0.091 0.0186 0.179 0.0552 0.257 0.1078 0.077 0.0526 0.144 0.1199 0.197 0.1983 0.052 0.0784 0.088 0.1663 0.106 0.2587 0.018 0.0922 0.018 0.1872-2e-3 0.2794-0.018 0.0922-0.055 0.1797-0.107 0.2578-0.054 0.0778-0.12 0.1448-0.199 0.1967-1.233 0.8162-7.069 7.0311-10.561 10.74-1.291 1.3765-2.408 2.5633-3.023 3.1987-0.067 0.0687-0.145 0.1235-0.233 0.1613-0.086 0.0377-0.181 0.0578-0.276 0.0589z" fill="#196164"/>
</svg>